<?xml version="1.0" standalone="no"?>
<!DOCTYPE svg PUBLIC "-//W3C//DTD SVG 20010904//EN"
 "http://www.w3.org/TR/2001/REC-SVG-20010904/DTD/svg10.dtd">
<svg version="1.0" xmlns="http://www.w3.org/2000/svg"
 width="424.000000pt" height="424.000000pt" viewBox="0 0 424.000000 424.000000"
 preserveAspectRatio="xMidYMid meet">
<metadata>
Created by potrace 1.14, written by Peter Selinger 2001-2017
</metadata>
<g transform="translate(0.000000,424.000000) scale(0.100000,-0.100000)"
fill="#000000" stroke="none">
<path d="M700 4174 c-131 -35 -269 -110 -371 -202 -107 -96 -208 -260 -249
-407 -20 -68 -20 -104 -20 -1445 0 -1337 1 -1377 20 -1444 84 -295 316 -525
613 -606 73 -20 95 -20 1463 -18 l1389 3 92 36 c215 84 377 226 477 419 72
139 67 5 64 1630 l-3 1465 -47 95 c-120 245 -317 408 -573 475 -87 22 -2770
22 -2855 -1z"/>
</g>
</svg>
